#N canvas 448 367 450 510 10;
#X msg 20 100 \; pd dsp \$1 \;;
#X obj 20 40 tgl 20 0 empty color dsp 2 10 1 10 -262144 -195568 -33289
0 1;
#X msg 113 111 0;
#X obj 113 185 s color;
#X msg 113 145 color \$1 20 12;
#X obj 113 76 select;
#X msg 148 111 6;
#X msg 244 110 On;
#X msg 214 110 Off;
#X obj 222 144 symbol;
#X obj 214 70 loadbang;
#X obj 41 41 cnv 15 28 18 empty on_off Off 2 10 0 14 -262144 -66577
0;
#X msg 222 181 \; on_off label \$1 \;;
#X obj 40 201 outlet;
#X obj 20 -34 key;
#X floatatom 20 -11 5 0 0 0 - - -, f 5;
#X obj 20 14 sel 112;
#X connect 1 0 0 0;
#X connect 1 0 5 0;
#X connect 1 0 13 0;
#X connect 2 0 4 0;
#X connect 4 0 3 0;
#X connect 5 0 2 0;
#X connect 5 0 8 0;
#X connect 5 1 6 0;
#X connect 5 1 7 0;
#X connect 6 0 4 0;
#X connect 7 0 9 0;
#X connect 8 0 9 0;
#X connect 9 0 12 0;
#X connect 10 0 8 0;
#X connect 10 0 2 0;
#X connect 14 0 15 0;
#X connect 15 0 16 0;
#X connect 16 0 1 0;
#X coords 0 -1 1 1 50 20 1 20 40;
